# xmcd CD database file
#
# Track frame offsets:
#	150
#	19385
#	39522
#	58320
#	76800
#	91317
#	110435
#	127945
#	148842
#	174530
#	197587
#	216132
#	234997
#	255230
#
# Disc length: 3602 seconds
#
# Revision: 0
# Processed by: cddbd v1.5.1PL0 Copyright (c) Steve Scherf et al.
# Submitted via: CDex 1.51
#
DISCID=ba0e100e
DTITLE=Various Artist - EAST COASTING vol.2
DYEAR=1995
DGENRE=Hip-Hop
TTITLE0=NUTTIN'BUT FLAVOR<VOCAL> FUNKMASTER FLEX and THE GHETTO CELEBS
TTITLE1=OWN DESTINY<KRS-ONE MIX> MAD LION
TTITLE2=I LIKE<LA FINGER'S VOCAL>  SKEETA RANX
TTITLE3=PUMP UP THE SOUND<DAISY 1986 MIX> RUDER RANKS
TTITLE4=THE LIGHT'S GONE OUT<IN MY BACKYARD><ALBUM VERSION> SHAM and THE PROFESSOR
TTITLE5=MASTA I.C.<STREET VERSION> MIC GERONIMO
TTITLE6=LONG COCKY-MAN<NO LESS THAN 12INCH MIX> WICKED SCORPION and RUDER RANKS
TTITLE7=REDRUM<ALBUM VERSION> NINE
TTITLE8=ALMIGHTY GOD<BUTTERMILK BISCUIT MIX> TERROR FABULOUS
TTITLE9=IT DON'T MATTER<STRAIGHT MIX> TEN THIEVES
TTITLE10=DON'T MEAN JAK<VOCAL> PARALLAX
TTITLE11=SENSI, CHEEBA COME FROM<HIP HOP MIX> BURRO BANTON
TTITLE12=PRETTY<BEFORE I GO TO BED><BOUNCE MIX> RAYVON
TTITLE13=WANT'N YOU BABY<ORIGINAL MIX> RAJAH MORE
EXTD=YEAR: 1995
EXTT0=
EXTT1=
EXTT2=
EXTT3=
EXTT4=
EXTT5=
EXTT6=
EXTT7=
EXTT8=
EXTT9=
EXTT10=
EXTT11=
EXTT12=
EXTT13=
PLAYORDER=
